# xmcd
#
# Track frame offsets: 
#        150
#        27699
#        51885
#        79775
#        97781
#        121031
#        139710
#        166522
#        187049
#        200331
#        242599
#        259522
#        280977
#        302855
#        332948
#
# Disc length: 4780 seconds
#
# Revision: 2
# Processed by: cddbd v1.5.2PL0 Copyright (c) Steve Scherf et al.
# Submitted via: ExactAudioCopy v0.95a5
#
DISCID=c912aa0f
DTITLE=Various Artist - Blues On the Road  CD-1
DYEAR=2000
DGENRE=Blues
TTITLE0=L.A.Blues - JAMES SOLBERG
TTITLE1=Freedom - COLIN JAMES
TTITLE2=You'll Know - BIG MIKE GRIFFIN
TTITLE3=Tequila Nights - TINO GONZALES
TTITLE4=Darker Side - JONNY LANG
TTITLE5=Ain't No Brakeman - JOHN MAYALL
TTITLE6=Cold Wind - MIKE MORGAN and The CRAWL
TTITLE7=Cold Fingers - TONY JOE WHITE
TTITLE8=Love Gotcha - LLOYD JONES
TTITLE9=Something Inside of Me - RICK DERRINGER
TTITLE10=Live to Give - DUKE ROBILLARD
TTITLE11=White Line Blues - JOHNNY WINTER
TTITLE12=No - CHARLIE MUSSELWHITE
TTITLE13=Am I Lo Sing You - COCO MONTOYA
TTITLE14=King of the Hill - DAVE GOODMAN
EXTD=
EXTT0=
EXTT1=
EXTT2=
EXTT3=
EXTT4=
EXTT5=
EXTT6=
EXTT7=
EXTT8=
EXTT9=
EXTT10=
EXTT11=
EXTT12=
EXTT13=
EXTT14=
PLAYORDER=
